<!DOCTYPE svg PUBLIC "-//W3C//DTD SVG 1.1//EN" "http://www.w3.org/Graphics/SVG/1.1/DTD/svg11.dtd">
<!-- Uploaded to: SVG Repo, www.svgrepo.com, Transformed by: SVG Repo Mixer Tools -->
<svg fill="#000000" width="800px" height="800px" viewBox="0 0 36 36" version="1.1" preserveAspectRatio="xMidYMid meet" xmlns="http://www.w3.org/2000/svg" xmlns:xlink="http://www.w3.org/1999/xlink" transform="rotate(90)">
<g id="SVGRepo_bgCarrier" stroke-width="0"/>
<g id="SVGRepo_tracerCarrier" stroke-linecap="round" stroke-linejoin="round"/>
<g id="SVGRepo_iconCarrier"> <title>capacitor-line</title> <path d="M15,34.06a1,1,0,0,1-1-1V3.15a1,1,0,1,1,2,0V33.06A1,1,0,0,1,15,34.06Z" class="clr-i-outline clr-i-outline-path-1"/>
<path d="M21,34.06a1,1,0,0,1-1-1V3.15a1,1,0,1,1,2,0V33.06A1,1,0,0,1,21,34.06Z" class="clr-i-outline clr-i-outline-path-2"/>
<path d="M14.46,19H3a1,1,0,0,1,0-2H14.46a1,1,0,0,1,0,2Z" class="clr-i-outline clr-i-outline-path-3"/>
<path d="M33,19H21.54a1,1,0,0,1,0-2H33a1,1,0,0,1,0,2Z" class="clr-i-outline clr-i-outline-path-4"/> <rect x="0" y="0" width="36" height="36" fill-opacity="0"/> </g>
</svg>